<svg id="visual" viewBox="0 0 1920 1080" width="1920" height="1080" xmlns="http://www.w3.org/2000/svg" xmlns:xlink="http://www.w3.org/1999/xlink" version="1.1"><rect width="1920" height="1080" fill="#001829"></rect><g><g transform="translate(1808 733)"><path d="M0 -67.9L58.8 -34L58.8 34L0 67.9L-58.8 34L-58.8 -34Z" stroke="#297EA6" fill="none" stroke-width="2"></path></g><g transform="translate(1005 501)"><path d="M0 -33L28.6 -16.5L28.6 16.5L0 33L-28.6 16.5L-28.6 -16.5Z" stroke="#297EA6" fill="none" stroke-width="2"></path></g><g transform="translate(731 307)"><path d="M0 -18L15.6 -9L15.6 9L0 18L-15.6 9L-15.6 -9Z" stroke="#297EA6" fill="none" stroke-width="2"></path></g><g transform="translate(1626 738)"><path d="M0 -58L50.2 -29L50.2 29L0 58L-50.2 29L-50.2 -29Z" stroke="#297EA6" fill="none" stroke-width="2"></path></g><g transform="translate(526 752)"><path d="M0 -56L48.5 -28L48.5 28L0 56L-48.5 28L-48.5 -28Z" stroke="#297EA6" fill="none" stroke-width="2"></path></g><g transform="translate(534 187)"><path d="M0 -50L43.3 -25L43.3 25L0 50L-43.3 25L-43.3 -25Z" stroke="#297EA6" fill="none" stroke-width="2"></path></g><g transform="translate(1315 301)"><path d="M0 -10L8.7 -5L8.7 5L0 10L-8.7 5L-8.7 -5Z" stroke="#297EA6" fill="none" stroke-width="2"></path></g><g transform="translate(1363 967)"><path d="M0 -16L13.9 -8L13.9 8L0 16L-13.9 8L-13.9 -8Z" stroke="#297EA6" fill="none" stroke-width="2"></path></g><g transform="translate(1138 723)"><path d="M0 -40L34.6 -20L34.6 20L0 40L-34.6 20L-34.6 -20Z" stroke="#297EA6" fill="none" stroke-width="2"></path></g><g transform="translate(1400 583)"><path d="M0 -45L39 -22.5L39 22.5L0 45L-39 22.5L-39 -22.5Z" stroke="#297EA6" fill="none" stroke-width="2"></path></g><g transform="translate(1520 906)"><path d="M0 -13L11.3 -6.5L11.3 6.5L0 13L-11.3 6.5L-11.3 -6.5Z" stroke="#297EA6" fill="none" stroke-width="2"></path></g><g transform="translate(295 86)"><path d="M0 -56L48.5 -28L48.5 28L0 56L-48.5 28L-48.5 -28Z" stroke="#297EA6" fill="none" stroke-width="2"></path></g><g transform="translate(986 965)"><path d="M0 -55L47.6 -27.5L47.6 27.5L0 55L-47.6 27.5L-47.6 -27.5Z" stroke="#297EA6" fill="none" stroke-width="2"></path></g><g transform="translate(119 701)"><path d="M0 -38L32.9 -19L32.9 19L0 38L-32.9 19L-32.9 -19Z" stroke="#297EA6" fill="none" stroke-width="2"></path></g><g transform="translate(555 471)"><path d="M0 -17L14.7 -8.5L14.7 8.5L0 17L-14.7 8.5L-14.7 -8.5Z" stroke="#297EA6" fill="none" stroke-width="2"></path></g><g transform="translate(864 345)"><path d="M0 -31L26.8 -15.5L26.8 15.5L0 31L-26.8 15.5L-26.8 -15.5Z" stroke="#297EA6" fill="none" stroke-width="2"></path></g><g transform="translate(841 125)"><path d="M0 -8L6.9 -4L6.9 4L0 8L-6.9 4L-6.9 -4Z" stroke="#297EA6" fill="none" stroke-width="2"></path></g><g transform="translate(148 850)"><path d="M0 -54L46.8 -27L46.8 27L0 54L-46.8 27L-46.8 -27Z" stroke="#297EA6" fill="none" stroke-width="2"></path></g><g transform="translate(1617 427)"><path d="M0 -59L51.1 -29.5L51.1 29.5L0 59L-51.1 29.5L-51.1 -29.5Z" stroke="#297EA6" fill="none" stroke-width="2"></path></g><g transform="translate(417 415)"><path d="M0 -15L13 -7.5L13 7.5L0 15L-13 7.5L-13 -7.5Z" stroke="#297EA6" fill="none" stroke-width="2"></path></g><g transform="translate(287 360)"><path d="M0 -13L11.3 -6.5L11.3 6.5L0 13L-11.3 6.5L-11.3 -6.5Z" stroke="#297EA6" fill="none" stroke-width="2"></path></g><g transform="translate(964 818)"><path d="M0 -29L25.1 -14.5L25.1 14.5L0 29L-25.1 14.5L-25.1 -14.5Z" stroke="#297EA6" fill="none" stroke-width="2"></path></g><g transform="translate(819 888)"><path d="M0 -15L13 -7.5L13 7.5L0 15L-13 7.5L-13 -7.5Z" stroke="#297EA6" fill="none" stroke-width="2"></path></g><g transform="translate(687 572)"><path d="M0 -63L54.6 -31.5L54.6 31.5L0 63L-54.6 31.5L-54.6 -31.5Z" stroke="#297EA6" fill="none" stroke-width="2"></path></g><g transform="translate(677 808)"><path d="M0 -61L52.8 -30.5L52.8 30.5L0 61L-52.8 30.5L-52.8 -30.5Z" stroke="#297EA6" fill="none" stroke-width="2"></path></g><g transform="translate(1156 538)"><path d="M0 -34L29.4 -17L29.4 17L0 34L-29.4 17L-29.4 -17Z" stroke="#297EA6" fill="none" stroke-width="2"></path></g><g transform="translate(1145 310)"><path d="M0 -30L26 -15L26 15L0 30L-26 15L-26 -15Z" stroke="#297EA6" fill="none" stroke-width="2"></path></g><g transform="translate(364 966)"><path d="M0 -29L25.1 -14.5L25.1 14.5L0 29L-25.1 14.5L-25.1 -14.5Z" stroke="#297EA6" fill="none" stroke-width="2"></path></g><g transform="translate(1026 139)"><path d="M0 -30L26 -15L26 15L0 30L-26 15L-26 -15Z" stroke="#297EA6" fill="none" stroke-width="2"></path></g><g transform="translate(1661 86)"><path d="M0 -29L25.1 -14.5L25.1 14.5L0 29L-25.1 14.5L-25.1 -14.5Z" stroke="#297EA6" fill="none" stroke-width="2"></path></g></g></svg>